<svg width="250" height="80" viewBox="0 0 250 80" fill="none" xmlns="http://www.w3.org/2000/svg">
  <path d="M70 40 C70 55 60 70 40 70 C20 70 5 55 5 40 C5 25 20 10 40 10 C60 10 70 25 70 40" fill="#6A1B9A"/>
  <circle cx="85" cy="25" r="15" fill="#FFC107"/>
  <path d="M110 20 L110 60 C110 65 115 70 120 70 L170 70 C175 70 180 65 180 60 L180 20 C180 15 175 10 170 10 L120 10 C115 10 110 15 110 20" fill="#6A1B9A"/>
  <circle cx="145" cy="30" r="15" fill="white"/>
  <path d="M140 32 C140 25 150 25 150 32 L150 40 C150 47 140 47 140 40 Z" fill="#FFC107"/>
  <circle cx="145" cy="25" r="3" fill="#FFC107"/>
  <text x="190" y="50" font-family="Arial" font-size="40" font-weight="bold" fill="#6A1B9A">na</text>
</svg>